<svg width="114" height="25" viewBox="0 0 114 25" fill="none" xmlns="http://www.w3.org/2000/svg">
<path d="M36.7925 24.5161H29.3768L22.0425 17.002L18.3347 13.2041L25.9738 5.37558H3.1814L0 0H24.1332L24.1123 0.0213471H24.1388V0H30.3388L33.3744 5.39111L25.7523 13.2041L36.7925 24.5161Z" fill="#46D3BE"/>
<path d="M21.2476 7.3143L16.0135 12.6782H7.10747L3.93555 7.3143H21.2476Z" fill="#46D3BE"/>
<path d="M45.4297 15.6319H43.216V21.2132H39.7676V4.85162H46.2061C49.4008 4.85162 51.7849 7.10664 51.7849 10.2602C51.7984 11.2563 51.5311 12.2353 51.0152 13.0797C50.4993 13.9241 49.7566 14.598 48.8762 15.0206L52.4061 21.2054H48.5486L45.4297 15.6319ZM43.216 12.3619H45.977C47.4219 12.3619 48.2854 11.4731 48.2854 10.2447C48.2854 9.01623 47.4219 8.12742 45.977 8.12742H43.216V12.3619Z" fill="#46D3BE"/>
<path d="M77.6936 13.567V21.2132H74.3645V14.1182C74.3645 12.2125 73.6582 11.2926 72.2171 11.2926C70.5014 11.2926 69.4561 12.5521 69.4561 14.5917V21.2229H66.127V8.60871H68.4107L69.0603 10.1612C69.5664 9.56527 70.1936 9.09004 70.8979 8.76888C71.6022 8.44771 72.3666 8.28838 73.1374 8.30208C75.9382 8.2982 77.6936 10.3728 77.6936 13.567Z" fill="#46D3BE"/>
<path d="M90.374 18.112H84.0245L82.928 21.2171H79.2656L85.5186 4.85162H88.7795L95.2351 21.2054H91.4875L90.374 18.112ZM85.1001 15.0283H89.2889L87.1831 9.18119L85.1001 15.0283Z" fill="#46D3BE"/>
<path d="M114.001 13.3012V21.2132H110.671V13.864C110.671 12.1795 110.028 11.2926 108.821 11.2926C107.337 11.2926 106.454 12.4143 106.454 14.3976V21.2229H103.207V13.864C103.207 12.1795 102.58 11.2926 101.389 11.2926C99.8831 11.2926 98.9855 12.4143 98.9855 14.3976V21.2229H95.6602V8.60869H97.9856L98.6086 10.1729C99.0454 9.60031 99.6022 9.13564 100.238 8.81318C100.873 8.49072 101.571 8.3187 102.28 8.30983C103.847 8.30983 105.142 9.05892 105.854 10.3281C106.285 9.7031 106.856 9.19348 107.52 8.84222C108.183 8.49096 108.919 8.30836 109.666 8.30983C112.213 8.29819 114.001 10.3456 114.001 13.3012Z" fill="#46D3BE"/>
<path d="M61.4641 8.59705V15.498C61.4641 17.2678 60.5608 18.3624 59.0194 18.3624C57.4779 18.3624 56.5576 17.2911 56.5576 15.498V8.59705H53.2266V11.5507L54.2908 12.1795L53.2266 12.8082V15.8861C53.2266 19.2919 55.5407 21.5683 59.0194 21.5683C62.4981 21.5683 64.7913 19.2919 64.7913 15.8861V8.59705H61.4641Z" fill="#46D3BE"/>
</svg>
