<svg width="21" height="18" viewBox="0 0 21 18" fill="none" xmlns="http://www.w3.org/2000/svg">
<path d="M20.18 2.41838C19.4356 2.77138 18.6424 3.00537 17.8155 3.11898C18.6662 2.56986 19.3155 1.70697 19.6207 0.666907C18.8276 1.17815 17.9518 1.53926 17.0186 1.74079C16.2654 0.873838 15.192 0.336899 14.021 0.336899C11.7491 0.336899 9.92007 2.33047 9.92007 4.77443C9.92007 5.12607 9.94759 5.4642 10.0151 5.78609C6.60352 5.60621 3.58472 3.8385 1.55676 1.14569C1.20271 1.80976 0.995038 2.56986 0.995038 3.38812C0.995038 4.92455 1.72691 6.28651 2.81783 7.07502C2.15852 7.06149 1.51172 6.85456 0.963761 6.52861C0.963761 6.54213 0.963761 6.55972 0.963761 6.5773C0.963761 8.73317 2.38621 10.5239 4.25153 10.9364C3.9175 11.0351 3.55345 11.0824 3.17563 11.0824C2.91291 11.0824 2.64768 11.0662 2.39872 11.0067C2.93042 12.7636 4.43919 14.0552 6.23321 14.0972C4.83703 15.2779 3.06428 15.9893 1.14516 15.9893C0.80863 15.9893 0.485858 15.9731 0.163086 15.9284C1.98087 17.1957 4.13519 17.9193 6.4584 17.9193C14.0098 17.9193 18.1382 11.1568 18.1382 5.29514C18.1382 5.09902 18.132 4.90968 18.1232 4.72168C18.9377 4.09683 19.622 3.31644 20.18 2.41838Z" fill="#169A91"/>
</svg>
