<svg width="25" height="24" viewBox="0 0 25 24" fill="none" xmlns="http://www.w3.org/2000/svg">
<g clip-path="url(#clip0_655_763)">
<path fill-rule="evenodd" clip-rule="evenodd" d="M17.4184 13.9738C17.1203 13.829 15.6591 13.1314 15.387 13.0343C15.115 12.9381 14.9169 12.8905 14.7179 13.18C14.5198 13.4676 13.9507 14.1186 13.7777 14.311C13.6037 14.5043 13.4306 14.5276 13.1336 14.3838C12.8365 14.2381 11.8783 13.934 10.7431 12.9507C9.85993 12.1851 9.26281 11.2397 9.08978 10.9501C8.91674 10.6616 9.07077 10.5051 9.2198 10.3613C9.35383 10.2321 9.51686 10.0242 9.66589 9.85609C9.81492 9.68703 9.86393 9.56655 9.96295 9.3732C10.063 9.18082 10.013 9.01273 9.93794 8.86795C9.86393 8.72318 9.26981 7.30171 9.02176 6.72359C8.78072 6.16103 8.53567 6.23778 8.35363 6.22807C8.1796 6.22029 7.98156 6.21835 7.78352 6.21835C7.58548 6.21835 7.26342 6.29025 6.99137 6.57979C6.71831 6.86836 5.95116 7.56696 5.95116 8.98844C5.95116 10.4089 7.01537 11.7818 7.1644 11.9752C7.31343 12.1676 9.25981 15.0844 12.2414 16.3348C12.9515 16.6322 13.5046 16.81 13.9357 16.9421C14.6479 17.1627 15.296 17.1316 15.8081 17.0568C16.3782 16.9742 17.5664 16.3582 17.8145 15.6839C18.0615 15.0096 18.0615 14.4314 17.9875 14.311C17.9135 14.1905 17.7155 14.1186 17.4174 13.9738H17.4184ZM11.9953 21.1667H11.9913C10.2204 21.167 8.48203 20.7046 6.95836 19.8278L6.59829 19.6199L2.85556 20.574L3.85475 17.0295L3.61971 16.6662C2.62965 15.1352 2.10571 13.3634 2.10841 11.5555C2.11041 6.26013 6.54528 1.95198 11.9993 1.95198C14.6399 1.95198 17.1223 2.95274 18.9887 4.76773C19.9093 5.65829 20.6389 6.71734 21.1354 7.88361C21.6319 9.04987 21.8854 10.3002 21.8813 11.5623C21.8793 16.8576 17.4444 21.1667 11.9953 21.1667ZM20.409 3.389C19.307 2.3114 17.9957 1.45697 16.5513 0.875228C15.1069 0.293485 13.558 -0.00400633 11.9943 -5.96183e-06C5.43906 -5.96183e-06 0.10202 5.18358 0.10002 11.5545C0.096982 13.582 0.6445 15.5744 1.68733 17.3307L0 23.3188L6.30523 21.7118C8.04945 22.6349 10.004 23.1186 11.9903 23.1187H11.9953C18.5506 23.1187 23.8877 17.9351 23.8897 11.5632C23.8945 10.0449 23.5894 8.54062 22.9919 7.13753C22.3945 5.73445 21.5166 4.46037 20.409 3.389Z" fill="#169A91"/>
</g>
<defs>
<clipPath id="clip0_655_763">
<rect width="24.0047" height="23.3188" fill="white"/>
</clipPath>
</defs>
</svg>
